<svg width="1361" height="94" viewBox="0 0 1361 94" xmlns="http://www.w3.org/2000/svg" xmlns:xlink="http://www.w3.org/1999/xlink"><title>wave-bg</title><defs><path id="a" d="M0 70.362V.992h1337.708v69.37H0z"/><path id="c" d="M471.8 73.94H.48V.039H471.8z"/><path id="e" d="M702.66.965v51.942H.38V.965h702.28z"/></defs><g fill="none" fill-rule="evenodd" opacity=".113"><path d="M1174.23 73.212c4.49-1.263 8.98-2.554 13.45-3.85 4.24-.45 8.48-.91 12.71-1.372-3.57 1.02-7.15 2.051-10.72 3.09-.96.279-1.91.552-2.87.826-4.19.446-8.37.882-12.57 1.306M431.737 52.99c3.296-.87 6.587-1.773 9.874-2.704 2.339-.664 4.679-1.335 7.016-2.012 5.046-.701 10.079-1.424 15.116-2.162a2372.437 2372.437 0 0 1-16.502 4.787c-5.165.738-10.33 1.44-15.504 2.091m440.059-.217c-4.957-.885-9.915-1.754-14.879-2.604a1066.878 1066.878 0 0 0-31.047-8.592c6.601 1.02 13.195 2.097 19.781 3.214 8.744 2.578 17.448 5.262 26.145 7.982M193.912 34.995a1441.984 1441.984 0 0 0-21.726-3.889c-10.161-2.762-20.327-5.429-30.519-7.947a892.665 892.665 0 0 1 21.539 3.076l1 .274c9.911 2.741 19.805 5.61 29.706 8.486" fill="#FFF"/><g transform="translate(0 -1)"><mask id="b" fill="#fff"><use xlink:href="#a"/></mask><path d="M1237.64 56.354c31.03-7.83 62.5-12.569 94.55-12.569 1.74 0 3.48.014 5.22.043.37.005.39 2.207.09 2.207a299.6 299.6 0 0 0-4.74-.037c-45.7 0-88.89 10.583-132.37 22.992-4.23.463-8.47.922-12.71 1.372 16.61-4.819 33.18-9.775 49.96-14.008M.205.992h.002c55.531 1.203 109.707 11.567 163 26.243a900.04 900.04 0 0 0-21.541-3.077C95.415 12.714 48.712 4.248.303 3.2-.075 3.19-.09.992.205.992" fill="#FFF" mask="url(#b)"/></g><path d="M349.844 64.596c10.153 0 20.306-.516 30.418-1.621 17.446-1.914 34.563-5.519 51.472-9.985a937.16 937.16 0 0 0 15.508-2.092c-23.238 6.612-46.65 12.493-70.89 14.683a279.514 279.514 0 0 1-25.174 1.117c-49.304 0-97.309-12.336-144.619-25.941-11.462-3.294-22.914-6.534-34.373-9.652a1454.7 1454.7 0 0 1 21.726 3.889c35.001 10.179 70.078 20.497 106.215 25.805 16.451 2.416 33.084 3.797 49.717 3.797" fill="#FFF"/><g transform="translate(715 20)"><mask id="d" fill="#fff"><use xlink:href="#c"/></mask><path d="M10.411.039c26.326 2.929 52.472 7.405 78.215 13.468 14.144 3.331 28.128 7.178 42.026 11.284a1335.099 1335.099 0 0 0-19.782-3.215C74.633 12.155 37.949 4.881.48 1.202 3.79.754 7.102.365 10.411.039m239.481 60.209c25.624 6.264 51.798 10.647 78.258 11.368 3.36.09 6.72.136 10.07.136 31.91 0 63.58-4.102 94.57-11.572 8.87-2.136 17.67-4.501 26.45-6.968 4.18-.425 8.38-.861 12.56-1.305C428.16 64.451 384.04 74 338.52 74c-5.05 0-10.11-.119-15.2-.361-53.52-2.568-104.101-19.398-154.635-35.328a1374.454 1374.454 0 0 0-26.767-8.142c4.964.85 9.921 1.718 14.876 2.604 30.888 9.655 61.621 19.78 93.098 27.475" fill="#FFF" mask="url(#d)"/></g><path d="M694.036 19.506a760.135 760.135 0 0 0-45.443-1.386c-49.855 0-99.679 5.202-147.972 17.619-12.352 3.177-24.615 6.779-36.877 10.372a2006.57 2006.57 0 0 1-15.119 2.163c18.648-5.396 37.19-11.124 56.053-15.79 26.987-6.678 54.445-11.381 82.181-13.853a703.455 703.455 0 0 1 62.486-2.787c20.295 0 40.591.886 60.803 2.672a432.79 432.79 0 0 0-9.189 1.448 527.89 527.89 0 0 0-6.923-.458M50.898 15.607h.012c8.228.173 16.421.639 24.573 1.39a894.674 894.674 0 0 0-25.17-1.054c.183-.21.382-.336.585-.336" fill="#FFF"/><g transform="translate(658 19)"><mask id="f" fill="#fff"><use xlink:href="#e"/></mask><path d="M12.423 7.093C22.597 4.752 32.766 2.678 42.959.965c4.851.352 9.693.764 14.521 1.237-.323.046-.643.089-.966.136-14.039 1.957-27.938 4.627-41.75 7.706A1149.82 1149.82 0 0 0 .38 9.94c4.006-.97 8.019-1.922 12.043-2.847M542.39 48.99c49.78-5.448 99.37-11.566 149.64-11.566 3.54 0 7.09.03 10.63.095.07.002-2.03 2.882-3.22 2.88h-.02c-3.55-.064-7.09-.092-10.64-.092-53.67 0-106.76 6.96-159.98 12.6.95-.274 1.91-.547 2.86-.826 3.58-1.04 7.16-2.071 10.73-3.091" fill="#FFF" mask="url(#f)"/></g><path d="M1093.38 78.791c-2.12.052-4.25.093-6.37.122-2.17.033-4.33.043-6.5.058-1.01.054-2.02.078-3.05.027-.74.003-1.49.003-2.24.003-26.72 0-53.36-1.373-79.903-4.725-26.116-3.296-51.991-8.04-77.811-12.997-15.234-2.923-30.461-5.789-45.711-8.506-8.695-2.72-17.4-5.404-26.144-7.982 39.65 6.727 78.998 14.952 118.708 21.559a696.91 696.91 0 0 0 56.851 7.051c-21.376-3.167-42.598-7.456-63.616-12.673-37.521-9.312-74.294-21.279-111.903-30.25-30.227-7.21-60.79-11.832-91.578-11.832-9.549 0-19.117.445-28.701 1.395a666.948 666.948 0 0 0-15.264-1.526c16.658-2.435 33.375-3.848 50.227-3.848 10.876 0 21.816.59 32.826 1.874 46.916 5.468 91.858 20.115 137.142 32.542 49.469 13.571 99.397 24.261 150.697 26.795.37.003.73.008 1.1.008 4.1 0 8.21-.034 12.32-.1 19.42-.306 38.88-1.335 58.39-3.027 11.63-1.008 23.24-2.171 34.83-3.397a1789.8 1789.8 0 0 1-13.44 3.849c-26.88 2.717-53.81 4.932-80.86 5.58" fill="#FFF"/><path d="M149.933 27.582a854.549 854.549 0 0 0-32.065-4.037 360.226 360.226 0 0 1 21.791 5.461c26.618 7.558 52.532 17.252 79.138 24.852 53.379 15.247 108.931 22.139 164.584 22.139 51.33 0 102.745-5.865 152.601-16.448 37.17-7.889 73.637-18.407 110.44-27.656-40.378.143-80.768 2.416-120.748 7.372-26.214 3.252-52.27 7.889-78.433 11.633a2303.555 2303.555 0 0 0 16.502-4.786c36.772-5.395 73.369-11.503 110.568-14.188a1151.631 1151.631 0 0 1 98.453-2.879c40.841.553 81.676 3.281 122.063 8.212a988.021 988.021 0 0 1 31.043 4.32 1066.444 1066.444 0 0 1 31.048 8.594c-41.397-7.091-82.956-12.886-125.063-15.596-23.763-1.528-47.631-2.449-71.514-2.651-24.042 5.769-47.867 12.521-71.759 18.669C538.26 63.54 487.281 74.119 435.275 77.945c-17.731 1.303-35.589 1.991-53.481 1.991-39.273 0-78.676-3.308-117.026-10.64-36.986-7.071-72.18-19.183-107.912-30.519-35.205-11.17-70.8-18.411-107.937-19.196-.02 0 .028-.285.135-.7-2.803-.083-5.604-.153-8.407-.214-.072 0 2.029-2.88 3.225-2.88h.015c2.146.044 4.285.097 6.426.158 8.398.23 16.79.583 25.169 1.053a898.186 898.186 0 0 1 66.186 6.16 1357.853 1357.853 0 0 1 30.518 7.948 926.757 926.757 0 0 0-22.253-3.524" fill="#FFF"/><path d="M431.734 52.991c-11.559 1.454-23.151 2.649-34.8 3.382-9.952.626-19.866.922-29.762.922-44.275 0-88.034-5.901-131.65-14.305-13.87-2.67-27.727-5.409-41.61-7.995-9.903-2.878-19.795-5.744-29.706-8.486l-1-.274c5.157.8 10.311 1.647 15.455 2.536 35.128 6.077 69.923 13.987 105.204 19.249 27.878 4.155 55.893 6.317 83.925 6.317 22.653 0 45.324-1.414 67.927-4.329 4.307-.555 8.613-1.137 12.909-1.734-2.336.677-4.676 1.348-7.018 2.012a575.64 575.64 0 0 1-9.874 2.705M715.48 21.203a572.832 572.832 0 0 0-14.521-1.24c3.063-.515 6.124-.999 9.189-1.448 5.094.451 10.183.958 15.263 1.523-3.309.328-6.623.716-9.931 1.165" fill="#FFF"/></g></svg>